<svg width="32" height="33" viewBox="0 0 32 33" fill="none" xmlns="http://www.w3.org/2000/svg">
<path d="M26 3H9C7.80653 3 6.66193 3.47411 5.81802 4.31802C4.97411 5.16193 4.5 6.30653 4.5 7.5V28.5C4.5 28.8978 4.65804 29.2794 4.93934 29.5607C5.22064 29.842 5.60218 30 6 30H24C24.3978 30 24.7794 29.842 25.0607 29.5607C25.342 29.2794 25.5 28.8978 25.5 28.5C25.5 28.1022 25.342 27.7206 25.0607 27.4393C24.7794 27.158 24.3978 27 24 27H7.5V26.5C7.5 26.1022 7.65804 25.7206 7.93934 25.4393C8.22064 25.158 8.60218 25 9 25H26C26.3978 25 26.7794 24.842 27.0607 24.5607C27.342 24.2794 27.5 23.8978 27.5 23.5V4.5C27.5 4.10218 27.342 3.72064 27.0607 3.43934C26.7794 3.15804 26.3978 3 26 3ZM24.5 22H9C8.48892 21.999 7.9815 22.0861 7.5 22.2575V7.5C7.5 7.10218 7.65804 6.72064 7.93934 6.43934C8.22064 6.15804 8.60218 6 9 6H24.5V22Z" fill="#999292"/>
</svg>
