<svg width="32" height="33" viewBox="0 0 32 33" fill="none" xmlns="http://www.w3.org/2000/svg">
<path d="M25 6.5H17V2.5C17 2.23478 16.8946 1.98043 16.7071 1.79289C16.5196 1.60536 16.2652 1.5 16 1.5C15.7348 1.5 15.4804 1.60536 15.2929 1.79289C15.1054 1.98043 15 2.23478 15 2.5V6.5H7C5.93913 6.5 4.92172 6.92143 4.17157 7.67157C3.42143 8.42172 3 9.43913 3 10.5V24.5C3 25.5609 3.42143 26.5783 4.17157 27.3284C4.92172 28.0786 5.93913 28.5 7 28.5H25C26.0609 28.5 27.0783 28.0786 27.8284 27.3284C28.5786 26.5783 29 25.5609 29 24.5V10.5C29 9.43913 28.5786 8.42172 27.8284 7.67157C27.0783 6.92143 26.0609 6.5 25 6.5ZM27 24.5C27 25.0304 26.7893 25.5391 26.4142 25.9142C26.0391 26.2893 25.5304 26.5 25 26.5H7C6.46957 26.5 5.96086 26.2893 5.58579 25.9142C5.21071 25.5391 5 25.0304 5 24.5V10.5C5 9.96957 5.21071 9.46086 5.58579 9.08579C5.96086 8.71071 6.46957 8.5 7 8.5H25C25.5304 8.5 26.0391 8.71071 26.4142 9.08579C26.7893 9.46086 27 9.96957 27 10.5V24.5ZM20.5 17.5H11.5C10.5717 17.5 9.6815 17.8687 9.02513 18.5251C8.36875 19.1815 8 20.0717 8 21C8 21.9283 8.36875 22.8185 9.02513 23.4749C9.6815 24.1313 10.5717 24.5 11.5 24.5H20.5C21.4283 24.5 22.3185 24.1313 22.9749 23.4749C23.6313 22.8185 24 21.9283 24 21C24 20.0717 23.6313 19.1815 22.9749 18.5251C22.3185 17.8687 21.4283 17.5 20.5 17.5ZM17 19.5V22.5H15V19.5H17ZM10 21C10 20.6022 10.158 20.2206 10.4393 19.9393C10.7206 19.658 11.1022 19.5 11.5 19.5H13V22.5H11.5C11.1022 22.5 10.7206 22.342 10.4393 22.0607C10.158 21.7794 10 21.3978 10 21ZM20.5 22.5H19V19.5H20.5C20.8978 19.5 21.2794 19.658 21.5607 19.9393C21.842 20.2206 22 20.6022 22 21C22 21.3978 21.842 21.7794 21.5607 22.0607C21.2794 22.342 20.8978 22.5 20.5 22.5ZM9 14C9 13.7033 9.08797 13.4133 9.2528 13.1666C9.41762 12.92 9.65189 12.7277 9.92597 12.6142C10.2001 12.5006 10.5017 12.4709 10.7926 12.5288C11.0836 12.5867 11.3509 12.7296 11.5607 12.9393C11.7704 13.1491 11.9133 13.4164 11.9712 13.7074C12.0291 13.9983 11.9994 14.2999 11.8858 14.574C11.7723 14.8481 11.58 15.0824 11.3334 15.2472C11.0867 15.412 10.7967 15.5 10.5 15.5C10.1022 15.5 9.72064 15.342 9.43934 15.0607C9.15804 14.7794 9 14.3978 9 14ZM20 14C20 13.7033 20.088 13.4133 20.2528 13.1666C20.4176 12.92 20.6519 12.7277 20.926 12.6142C21.2001 12.5006 21.5017 12.4709 21.7926 12.5288C22.0836 12.5867 22.3509 12.7296 22.5607 12.9393C22.7704 13.1491 22.9133 13.4164 22.9712 13.7074C23.0291 13.9983 22.9993 14.2999 22.8858 14.574C22.7723 14.8481 22.58 15.0824 22.3334 15.2472C22.0867 15.412 21.7967 15.5 21.5 15.5C21.1022 15.5 20.7206 15.342 20.4393 15.0607C20.158 14.7794 20 14.3978 20 14Z" fill="#999292"/>
</svg>
