<svg width="165" height="64" viewBox="0 0 165 64" fill="none" xmlns="http://www.w3.org/2000/svg">
<path d="M9.77129 41.0117H19.1651V46.5474H2.60008V17.1077H9.77129V41.0117ZM29.7568 22.853V28.8081H39.3603V34.3437H29.7568V40.802H40.6185V46.5474H22.5856V17.1077H40.6185V22.853H29.7568Z" fill="white"/>
<path d="M43.7828 34.2192C43.7828 32.6162 44.081 31.209 44.6775 29.9975C45.2925 28.786 46.122 27.8541 47.1657 27.2017C48.2095 26.5494 49.3744 26.2232 50.6605 26.2232C51.7601 26.2232 52.72 26.4469 53.5401 26.8942C54.3789 27.3415 55.0219 27.9286 55.4692 28.6555V26.4469H60.25V42.0474H55.4692V39.8387C55.0033 40.5656 54.3509 41.1527 53.5122 41.6C52.6921 42.0474 51.7322 42.271 50.6325 42.271C49.3651 42.271 48.2095 41.9449 47.1657 41.2925C46.122 40.6215 45.2925 39.6803 44.6775 38.4688C44.081 37.2386 43.7828 35.8221 43.7828 34.2192ZM55.4692 34.2471C55.4692 33.0542 55.1337 32.113 54.4627 31.4234C53.8104 30.7337 53.0089 30.3889 52.0584 30.3889C51.1078 30.3889 50.297 30.7337 49.626 31.4234C48.9737 32.0944 48.6475 33.0263 48.6475 34.2192C48.6475 35.412 48.9737 36.3626 49.626 37.0709C50.297 37.7605 51.1078 38.1053 52.0584 38.1053C53.0089 38.1053 53.8104 37.7605 54.4627 37.0709C55.1337 36.3812 55.4692 35.44 55.4692 34.2471ZM68.4895 29.0469C69.0487 28.1896 69.7476 27.5186 70.5864 27.034C71.4251 26.5307 72.357 26.2791 73.3822 26.2791V31.3395H72.0681C70.8753 31.3395 69.9806 31.6004 69.3842 32.1223C68.7877 32.6256 68.4895 33.5202 68.4895 34.8063V42.0474H63.7087V26.4469H68.4895V29.0469ZM85.173 26.2791C86.9995 26.2791 88.4533 26.8755 89.5344 28.0684C90.6341 29.2426 91.1839 30.8642 91.1839 32.9331V42.0474H86.4311V33.5761C86.4311 32.5324 86.1608 31.7216 85.6203 31.1438C85.0798 30.566 84.3529 30.2771 83.4396 30.2771C82.5263 30.2771 81.7994 30.566 81.2589 31.1438C80.7183 31.7216 80.4481 32.5324 80.4481 33.5761V42.0474H75.6673V26.4469H80.4481V28.5157C80.9327 27.8261 81.585 27.2856 82.4051 26.8942C83.2252 26.4841 84.1478 26.2791 85.173 26.2791ZM105.212 26.2512V30.2212H111.614V33.9116H105.212V38.2171H112.453V42.0474H100.431V22.4209H112.453V26.2512H105.212ZM114.606 34.2192C114.606 32.6162 114.904 31.209 115.501 29.9975C116.116 28.786 116.945 27.8541 117.989 27.2017C119.033 26.5494 120.197 26.2232 121.483 26.2232C122.583 26.2232 123.543 26.4469 124.363 26.8942C125.202 27.3415 125.845 27.9286 126.292 28.6555V26.4469H131.073V42.0474H126.292V39.8387C125.826 40.5656 125.174 41.1527 124.335 41.6C123.515 42.0474 122.555 42.271 121.456 42.271C120.188 42.271 119.033 41.9449 117.989 41.2925C116.945 40.6215 116.116 39.6803 115.501 38.4688C114.904 37.2386 114.606 35.8221 114.606 34.2192ZM126.292 34.2471C126.292 33.0542 125.957 32.113 125.286 31.4234C124.633 30.7337 123.832 30.3889 122.881 30.3889C121.931 30.3889 121.12 30.7337 120.449 31.4234C119.797 32.0944 119.471 33.0263 119.471 34.2192C119.471 35.412 119.797 36.3626 120.449 37.0709C121.12 37.7605 121.931 38.1053 122.881 38.1053C123.832 38.1053 124.633 37.7605 125.286 37.0709C125.957 36.3812 126.292 35.44 126.292 34.2471ZM139.005 38.1053H145.771V42.0474H133.665V38.2451L140.151 30.3889H133.721V26.4469H145.631V30.2491L139.005 38.1053ZM164.337 26.4469L154.552 49.4562H149.408L152.987 41.5162L146.64 26.4469H151.98L155.587 36.2042L159.165 26.4469H164.337Z" fill="url(#paint0_linear_511_1163)"/>
<defs>
<linearGradient id="paint0_linear_511_1163" x1="43" y1="32.0474" x2="165" y2="32.0474" gradientUnits="userSpaceOnUse">
<stop stop-color="#0EDDB8"/>
<stop offset="1" stop-color="#999999"/>
</linearGradient>
</defs>
</svg>
