<svg width="48" height="48" viewBox="0 0 48 48" fill="none" xmlns="http://www.w3.org/2000/svg">
<rect x="0.5" y="0.5" width="47" height="47" rx="7.5" stroke="white"/>
<path d="M16 31V21C16 18.8783 16.8429 16.8434 18.3431 15.3431C19.8434 13.8429 21.8783 13 24 13C26.1217 13 28.1566 13.8429 29.6569 15.3431C31.1571 16.8434 32 18.8783 32 21V31M13 31H35M27 31V32C27 32.7956 26.6839 33.5587 26.1213 34.1213C25.5587 34.6839 24.7956 35 24 35C23.2044 35 22.4413 34.6839 21.8787 34.1213C21.3161 33.5587 21 32.7956 21 32V31" stroke="white" stroke-width="2"/>
</svg>
